<svg width="85" height="56" viewBox="0 0 85 56" fill="none" xmlns="http://www.w3.org/2000/svg">
<path d="M39.9772 49.6167C23.3469 51.1508 6.01332 48.7344 3.58551 35.7377C2.39782 29.3308 5.32048 22.5369 9.19234 18.3141V16.0591C2.21756 22.1762 -1.56239 29.9162 0.614824 39.0593C3.39593 50.7865 18.2685 57.4275 40.9757 55.2222C49.9637 54.3511 61.7182 51.4613 69.8956 46.9696V40.5935C62.474 45.0155 50.2013 48.6682 39.9772 49.6167ZM83.7871 15.9068C79.8424 -3.35218 42.4486 -4.57311 18.3439 10.0999V11.7205C42.421 -0.65781 76.5731 -0.5826 79.6825 17.1585C80.726 23.0271 77.42 29.1412 71.5141 32.6617V37.265C78.6185 34.6591 85.9058 26.2307 83.7871 15.9068Z" fill="white"/>
<path d="M68.551 13.1023H64.1906V32.5225C64.1906 34.7984 65.2909 36.7776 68.551 37.0939V13.1023ZM16.6318 20.193H12.2635L12.2611 32.8808C12.2611 35.1647 13.3649 37.1419 16.6318 37.4522V20.193ZM12.2635 13.6931H16.6182V17.8263H12.2635V13.6931ZM42.7451 37.2512C39.2158 37.2512 37.7223 34.7981 37.7223 32.3818V15.5353H42.0446V20.193H45.2999V23.6842H42.0446V32.1148C42.0446 33.1001 42.5124 33.649 43.5398 33.649H45.2999V37.2514L42.7451 37.2512ZM50.6988 30.074C50.6988 32.2861 52.082 33.9117 54.5295 33.9117C56.4472 33.9117 57.3924 33.3795 58.4994 32.2861L61.1703 34.8303C59.4579 36.522 57.6639 37.5506 54.4976 37.5506C50.3611 37.5506 46.3977 35.293 46.3977 28.7112C46.3977 23.0844 49.8609 19.9038 54.4017 19.9038C59.0176 19.9038 61.6703 23.6273 61.6703 28.515V30.0744H50.6988M54.2122 23.4787C52.7327 23.4787 51.596 24.2406 51.1142 25.2685C50.8336 25.8862 50.7308 26.3676 50.6987 27.1268H57.3602C57.276 25.2685 56.4335 23.4787 54.2122 23.4787ZM28.3715 23.6842C29.639 23.6842 30.1659 24.3108 30.1659 25.3279V37.2765H34.4893V25.3027C34.4893 22.8765 33.1966 20.1975 29.4001 20.1975L20.4694 20.193V37.2765H24.7944V23.6842H28.3715ZM73.2425 16.5724C72.2813 16.5724 71.5141 15.7973 71.5141 14.8373C71.5141 13.8819 72.2813 13.1023 73.2425 13.1023C74.1989 13.1023 74.9842 13.8819 74.9842 14.8373C74.9842 15.7973 74.1988 16.5724 73.2425 16.5724ZM73.2425 13.3916C72.4503 13.3916 71.8132 14.0464 71.8132 14.8373C71.8132 15.6328 72.4503 16.276 73.2425 16.276C74.0345 16.276 74.6921 15.6328 74.6921 14.8373C74.692 14.0464 74.0346 13.3916 73.2425 13.3916ZM74.0117 15.8772H73.6875C73.6735 15.8771 73.6599 15.8729 73.6482 15.8652C73.6366 15.8576 73.6273 15.8467 73.6216 15.8339L73.1831 15.0885C73.1693 15.0725 73.1328 15.0544 73.1216 15.0544H72.9208V15.7974C72.9208 15.8341 72.8955 15.8774 72.8478 15.8774H72.5554C72.5118 15.8774 72.4824 15.8341 72.4824 15.7974V13.9231C72.4824 13.8135 72.5189 13.7684 72.6148 13.7547C72.7198 13.7433 72.9938 13.7296 73.147 13.7296C73.688 13.7296 74.0055 13.8888 74.0055 14.3905V14.4271C74.0055 14.737 73.8526 14.9059 73.6151 14.9812L74.0717 15.7586C74.0792 15.7759 74.083 15.7946 74.0831 15.8135C74.0825 15.8429 74.0667 15.8772 74.0117 15.8772ZM73.5918 14.3905C73.5918 14.1811 73.4616 14.1149 73.1829 14.1149H72.9068V14.7095C72.9502 14.7095 73.1466 14.7187 73.1829 14.7187C73.4616 14.7187 73.5918 14.6257 73.5918 14.4271V14.3905Z" fill="white"/>
</svg>
