<svg width="16" height="16" viewBox="0 0 16 16" fill="none" xmlns="http://www.w3.org/2000/svg">
<path d="M1.91313 1.17538H4.06615V0.58769C4.06615 0.262412 4.29931 0 4.58779 0C4.87651 0 5.10942 0.262685 5.10942 0.58769V1.17538H7.565V0.58769C7.565 0.262412 7.79816 0 8.08663 0C8.37535 0 8.60827 0.262685 8.60827 0.58769V1.17538H11.0638V0.58769C11.0638 0.262412 11.297 0 11.5855 0C11.8742 0 12.1071 0.262685 12.1071 0.58769V1.17538H14.0869C15.1409 1.17538 16 2.14329 16 3.33072V13.8447C16 15.0321 15.1409 16 14.0869 16H1.91309C0.859122 16 0 15.0321 0 13.8447V3.33072C0 2.14357 0.859122 1.17566 1.91309 1.17566L1.91313 1.17538ZM12.1079 2.35077V2.85236C12.1079 3.17764 11.8747 3.44005 11.5863 3.44005C11.2975 3.44005 11.0646 3.17737 11.0646 2.85236V2.35077H8.60905V2.85236C8.60905 3.17764 8.37589 3.44005 8.08742 3.44005C7.7987 3.44005 7.56578 3.17737 7.56578 2.85236V2.35077H5.11021V2.85236C5.11021 3.17764 4.87705 3.44005 4.58857 3.44005C4.29986 3.44005 4.06694 3.17737 4.06694 2.85236V2.35077H1.91391C1.434 2.35077 1.04435 2.78976 1.04435 3.33044V4.92541H14.9567V3.33044C14.9567 2.78976 14.567 2.35077 14.0871 2.35077H12.1079ZM1.91313 14.8275H14.0869C14.5669 14.8275 14.9565 14.3886 14.9565 13.8479V6.1008H1.04357V13.8444C1.04357 14.3851 1.43322 14.8279 1.91313 14.8279V14.8275Z" fill="#ED1C24"/>
<path d="M11.0465 7.95467H11.7734C12.0621 7.95467 12.2951 8.21736 12.2951 8.54236V9.02044C12.2951 9.34572 12.0619 9.60813 11.7734 9.60813H11.0465C10.7578 9.60813 10.5249 9.34544 10.5249 9.02044V8.54236C10.5249 8.21708 10.7578 7.95467 11.0465 7.95467Z" fill="#ED1C24"/>
<path d="M7.63485 7.95467H8.36174C8.65045 7.95467 8.88337 8.21736 8.88337 8.54236V9.02044C8.88337 9.34572 8.65021 9.60813 8.36174 9.60813H7.63485C7.34613 9.60813 7.11321 9.34544 7.11321 9.02044V8.54236C7.11297 8.21708 7.34953 7.95467 7.63485 7.95467Z" fill="#ED1C24"/>
<path d="M4.22615 7.95467H4.95304C5.24176 7.95467 5.47468 8.21736 5.47468 8.54236V9.02044C5.47468 9.34572 5.24152 9.60813 4.95304 9.60813H4.22615C3.93744 9.60813 3.70452 9.34544 3.70452 9.02044V8.54236C3.70452 8.21708 3.93768 7.95467 4.22615 7.95467Z" fill="#ED1C24"/>
<path d="M11.0465 11.2506H11.7734C12.0621 11.2506 12.2951 11.5133 12.2951 11.8383V12.3163C12.2951 12.6416 12.0619 12.904 11.7734 12.904H11.0465C10.7578 12.904 10.5249 12.6413 10.5249 12.3163V11.8383C10.5249 11.5168 10.7578 11.2506 11.0465 11.2506Z" fill="#ED1C24"/>
<path d="M7.63485 11.2506H8.36174C8.65045 11.2506 8.88337 11.5133 8.88337 11.8383V12.3163C8.88337 12.6416 8.65021 12.904 8.36174 12.904H7.63485C7.34613 12.904 7.11321 12.6413 7.11321 12.3163V11.8383C7.11297 11.5168 7.34953 11.2506 7.63485 11.2506Z" fill="#ED1C24"/>
<path d="M4.22615 11.2506H4.95304C5.24176 11.2506 5.47468 11.5133 5.47468 11.8383V12.3163C5.47468 12.6416 5.24152 12.904 4.95304 12.904H4.22615C3.93744 12.904 3.70452 12.6413 3.70452 12.3163V11.8383C3.70452 11.5168 3.93768 11.2506 4.22615 11.2506Z" fill="#ED1C24"/>
</svg>
