<svg width="16" height="16" viewBox="0 0 16 16" fill="none" xmlns="http://www.w3.org/2000/svg">
<g clip-path="url(#clip0_1_3527)">
<path d="M14.8917 1.08203H1.10828C0.497208 1.08203 0 1.57924 0 2.19031V11.5416C0 12.1526 0.497208 12.6498 1.10828 12.6498H9.14562L8.90293 14.1299C8.85727 14.4085 8.94942 14.6608 9.14948 14.8049C9.34948 14.9489 9.61787 14.9566 9.86771 14.8249L11.6018 13.9122C11.6501 13.8874 11.7835 13.8874 11.8318 13.9122L13.5659 14.8249C13.6845 14.8874 13.8074 14.9185 13.9251 14.9185C14.0553 14.9185 14.1792 14.8804 14.2842 14.8048C14.4842 14.6608 14.5763 14.4083 14.5307 14.1298L14.2881 12.6498H14.8918C15.5029 12.6498 16.0001 12.1526 16.0001 11.5415V2.19031C16 1.57918 15.5028 1.08203 14.8917 1.08203ZM11.7168 10.7502C10.6518 10.7502 9.78525 9.88364 9.78525 8.81861C9.78525 7.75358 10.6518 6.88703 11.7168 6.88703C12.7819 6.88703 13.6484 7.75358 13.6484 8.81861C13.6484 9.88364 12.7819 10.7502 11.7168 10.7502ZM12.2743 13.0716C11.9513 12.9015 11.4823 12.9015 11.1593 13.0716L9.93338 13.7169L10.3231 11.3395C10.7365 11.569 11.2116 11.7001 11.7169 11.7001C12.2222 11.7001 12.6973 11.5689 13.1107 11.3395L13.2625 12.2664C13.2629 12.2679 13.263 12.2695 13.2634 12.2711L13.5004 13.717L12.2743 13.0716ZM15.05 11.5416C15.05 11.6274 14.9775 11.6999 14.8917 11.6999H14.1323L13.9589 10.6417C13.9582 10.6375 13.957 10.6335 13.9562 10.6294C14.3574 10.1342 14.5984 9.5041 14.5984 8.81861C14.5984 7.22971 13.3058 5.93707 11.7169 5.93707C10.128 5.93707 8.83536 7.22971 8.83536 8.81861C8.83536 9.5041 9.0764 10.1341 9.4776 10.6294C9.47677 10.6335 9.47563 10.6375 9.47493 10.6416L9.30135 11.7007C9.29603 11.7005 9.2909 11.6999 9.28558 11.6999H1.10828C1.02247 11.6999 0.949957 11.6274 0.949957 11.5416V2.19031C0.949957 2.1045 1.02247 2.03199 1.10828 2.03199H14.8917C14.9775 2.03199 15.05 2.1045 15.05 2.19031V11.5416Z" fill="url(#paint0_linear_1_3527)"/>
<path d="M13.2138 3.81641H2.44763C2.18526 3.81641 1.97266 4.02901 1.97266 4.29138C1.97266 4.55376 2.18526 4.76636 2.44763 4.76636H13.2138C13.4762 4.76636 13.6888 4.55376 13.6888 4.29138C13.6888 4.02901 13.4762 3.81641 13.2138 3.81641Z" fill="url(#paint1_linear_1_3527)"/>
<path d="M7.00743 6.39062H2.44763C2.18526 6.39062 1.97266 6.60323 1.97266 6.8656C1.97266 7.12798 2.18526 7.34058 2.44763 7.34058H7.00743C7.26981 7.34058 7.48241 7.12798 7.48241 6.8656C7.48241 6.60323 7.26981 6.39062 7.00743 6.39062Z" fill="url(#paint2_linear_1_3527)"/>
</g>
<defs>
<linearGradient id="paint0_linear_1_3527" x1="-0.0019531" y1="7.50098" x2="16.498" y2="7.50098" gradientUnits="userSpaceOnUse">
<stop stop-color="#FFE19C"/>
<stop offset="0.419955" stop-color="#FFC33C"/>
<stop offset="1" stop-color="#F7D485"/>
</linearGradient>
<linearGradient id="paint1_linear_1_3527" x1="1.97123" y1="4.2571" x2="14.0534" y2="4.25711" gradientUnits="userSpaceOnUse">
<stop stop-color="#FFE19C"/>
<stop offset="0.419955" stop-color="#FFC33C"/>
<stop offset="1" stop-color="#F7D485"/>
</linearGradient>
<linearGradient id="paint2_linear_1_3527" x1="1.97198" y1="6.83132" x2="7.65389" y2="6.83132" gradientUnits="userSpaceOnUse">
<stop stop-color="#FFE19C"/>
<stop offset="0.419955" stop-color="#FFC33C"/>
<stop offset="1" stop-color="#F7D485"/>
</linearGradient>
<clipPath id="clip0_1_3527">
<rect width="16" height="16" fill="white"/>
</clipPath>
</defs>
</svg>
