<svg width="17" height="17" viewBox="0 0 17 17" fill="none" xmlns="http://www.w3.org/2000/svg">
<g clip-path="url(#clip0_1_3127)">
<path d="M13.1667 7.4194V4.06918C13.1667 3.33384 12.5687 2.73584 11.8333 2.73584H1.83331C1.09797 2.73584 0.5 3.33381 0.5 4.06918V10.7358C0.5 11.4712 1.09797 12.0692 1.83334 12.0692H9.30881C9.74556 13.6058 11.1585 14.7358 12.8333 14.7358C13.4779 14.7358 14.1117 14.5662 14.667 14.245C14.8262 14.1528 14.8809 13.9491 14.7884 13.7896C14.6963 13.6301 14.4922 13.575 14.333 13.6682C13.8792 13.9305 13.3607 14.0692 12.8333 14.0692C11.179 14.0692 9.83331 12.7235 9.83331 11.0692C9.83331 9.4149 11.179 8.06918 12.8333 8.06918C14.4876 8.06918 15.8333 9.4149 15.8333 11.0692V11.4025C15.8333 11.77 15.5342 12.0692 15.1667 12.0692C14.7992 12.0692 14.5 11.77 14.5 11.4025V10.0692C14.5 9.88493 14.3509 9.73584 14.1667 9.73584C14.077 9.73584 13.9964 9.77212 13.9366 9.82959C13.642 9.56706 13.258 9.4025 12.8333 9.4025C11.9144 9.4025 11.1667 10.1502 11.1667 11.0692C11.1667 11.9881 11.9144 12.7358 12.8333 12.7358C13.3301 12.7358 13.7718 12.513 14.0774 12.167C14.3189 12.5101 14.7162 12.7358 15.1667 12.7358C15.902 12.7358 16.5 12.1379 16.5 11.4025V11.0692C16.5 9.15987 15.0326 7.58859 13.1667 7.4194ZM1.83334 3.4025H11.8333C11.8472 3.4025 11.8588 3.40959 11.8725 3.41043L7.10744 7.32178C6.93784 7.42856 6.69206 7.4064 6.58172 7.33872L1.79456 3.41037C1.80809 3.40956 1.81959 3.4025 1.83334 3.4025ZM12.5 7.4194C10.634 7.58859 9.16666 9.15987 9.16666 11.0692C9.16666 11.1817 9.17356 11.2926 9.18353 11.4025H1.83334C1.46584 11.4025 1.16669 11.1034 1.16669 10.7359V4.06918C1.16669 3.97478 1.18753 3.88562 1.22309 3.80418L6.18819 7.87584C6.38219 8.00246 6.60519 8.06921 6.83337 8.06921C7.05278 8.06921 7.26728 8.00737 7.45609 7.89018C7.47497 7.88009 7.49287 7.86806 7.50981 7.85406L12.4436 3.80412C12.4792 3.88562 12.5 3.97478 12.5 4.06921V7.4194H12.5ZM12.8333 12.0692C12.2819 12.0692 11.8333 11.6206 11.8333 11.0692C11.8333 10.5177 12.2819 10.0692 12.8333 10.0692C13.3848 10.0692 13.8333 10.5177 13.8333 11.0692C13.8333 11.6206 13.3848 12.0692 12.8333 12.0692Z" fill="white"/>
</g>
<defs>
<clipPath id="clip0_1_3127">
<rect width="16" height="16" fill="white" transform="translate(0.5 0.73584)"/>
</clipPath>
</defs>
</svg>
