<svg width="40" height="41" viewBox="0 0 40 41" fill="none" xmlns="http://www.w3.org/2000/svg">
<path fill-rule="evenodd" clip-rule="evenodd" d="M8.50667 2.52449C7.71015 3.49971 7.4331 4.4994 7.84018 4.92958C7.94522 5.04051 8.01582 5.14117 7.99714 5.15313C7.97838 5.16517 7.6174 5.506 7.19488 5.91049L6.42666 6.64594L6.42294 5.98932C6.41938 5.36336 6.21196 4.4095 6.07942 4.4095C5.9671 4.4095 5.48838 5.21502 5.29034 5.73743C5.04775 6.37711 5.03465 6.92327 5.25323 7.2792C5.34137 7.42264 5.44755 7.54008 5.48919 7.54008C5.53084 7.54008 5.30595 7.88404 4.98945 8.30434L4.41401 9.06868L4.3063 8.64549C4.17829 8.14283 3.67596 7.05845 3.57116 7.05845C3.46918 7.05845 3.18219 7.82817 3.06648 8.4123C2.91995 9.15136 3.02071 9.7322 3.36002 10.105L3.63577 10.408L3.32524 11.1443L3.01464 11.8806L2.71617 11.3759C2.34823 10.7538 1.73528 10.0453 1.64309 10.1355C1.60549 10.1723 1.57476 10.6419 1.57476 11.179C1.57476 12.0081 1.60072 12.2103 1.74668 12.5169C1.92272 12.8869 2.15764 13.1733 2.3915 13.3032C2.50916 13.3686 2.51263 13.4401 2.42392 13.9701C2.29042 14.7676 2.24012 14.848 2.05243 14.5637C1.88536 14.3106 0.745005 13.3196 0.620878 13.3196C0.487046 13.3196 0.62856 14.3917 0.838081 14.9647C1.09564 15.669 1.38529 16.0853 1.7711 16.3058L2.09019 16.4881L2.1155 17.2295L2.14082 17.9711L1.73649 17.5799C1.343 17.1993 0.283186 16.4502 0.138114 16.4502C-0.015934 16.4502 0.443622 17.9437 0.765302 18.4883C1.05755 18.9831 1.54678 19.4171 1.94318 19.5333L2.2943 19.6362L2.39433 20.2306C2.44932 20.5575 2.51401 20.9243 2.53794 21.0459C2.57967 21.2569 2.55865 21.2479 2.06642 20.8452C1.58988 20.4552 0.465698 19.7418 0.120404 19.6102C-0.0101926 19.5605 -0.0215138 19.5849 0.0249027 19.815C0.135445 20.364 0.695273 21.3857 1.15612 21.8796C1.65805 22.4175 2.00391 22.6189 2.56358 22.6991L2.92836 22.7515L3.14395 23.4739C3.26257 23.8713 3.38905 24.2436 3.42503 24.3014C3.46102 24.3591 3.24139 24.2363 2.93693 24.0283C2.3978 23.6601 1.5856 23.2547 0.766111 22.9446C0.543732 22.8605 0.352163 22.7917 0.340519 22.7917C0.263535 22.7915 0.625163 23.4553 0.97822 23.9623C1.77636 25.1083 2.6514 25.7092 3.5338 25.717L4.03718 25.7215L4.25495 26.1229C4.37471 26.3436 4.55755 26.65 4.66121 26.8037C4.76496 26.9574 4.84979 27.1087 4.84979 27.1397C4.84979 27.1707 4.57841 27.0716 4.2467 26.9195C3.5807 26.614 1.74401 26.0628 1.5146 26.0995C1.39459 26.1188 1.43875 26.2084 1.7639 26.6064C2.83981 27.9232 4.50854 28.8136 5.43566 28.5658C5.61203 28.5187 5.7985 28.4962 5.85009 28.5159C5.90168 28.5355 6.17921 28.834 6.46677 29.1791C6.75432 29.5243 6.92535 29.7821 6.84667 29.7522C6.02913 29.4407 3.23249 29.0201 3.23249 29.2086C3.23249 29.3059 4.38983 30.1676 4.93882 30.479C5.46057 30.7749 6.43272 31.1048 6.99271 31.1759C7.25431 31.209 7.53225 31.1863 7.78018 31.1114L8.16323 30.9956L8.63629 31.4146L9.10927 31.8335L7.60624 31.8383C6.77955 31.8411 6.01223 31.8787 5.90104 31.9221C5.71505 31.9948 5.7799 32.0404 6.70969 32.4907C7.87479 33.055 8.66233 33.2931 9.58985 33.3614C10.0784 33.3974 10.3413 33.3776 10.6178 33.2841L10.9892 33.1585L11.6042 33.4688C13.2306 34.2895 14.8546 34.8505 16.676 35.221C17.6383 35.4167 18.1064 35.5547 17.8079 35.5547C17.7595 35.5547 16.5345 35.7521 15.0858 35.9933L12.4517 36.4319L11.3242 37.378C10.7041 37.8983 10.1945 38.3469 10.1918 38.3748C10.1891 38.4027 10.6873 38.2652 11.2988 38.0694C13.2663 37.4393 16.1406 36.619 18.165 36.1101L20.1372 35.6143L21.5301 35.9557C23.4831 36.4343 25.7442 37.0632 28.0475 37.7684C29.1314 38.1002 30.0328 38.3572 30.0506 38.3395C30.0801 38.3104 28.3234 36.7932 27.9517 36.5267C27.8661 36.4653 27.2636 36.3299 26.6129 36.2259C24.7275 35.9244 22.5326 35.537 22.3608 35.4753C22.2535 35.4369 22.3629 35.4006 22.7011 35.3626C24.1241 35.2028 26.2914 34.5151 27.9092 33.7101C29.0059 33.1643 29.0159 33.1613 29.3243 33.2704C30.0178 33.5159 31.184 33.3606 32.5229 32.8445C33.3898 32.5104 34.2396 32.0262 34.1373 31.9247C34.0878 31.8756 33.4258 31.8407 32.469 31.8369L30.8827 31.8305L31.3505 31.4083C31.6429 31.1444 31.8637 31.0038 31.9396 31.0331C32.8778 31.395 34.1938 31.0547 35.6908 30.0631C36.0515 29.8242 36.4559 29.5143 36.5893 29.3746L36.8319 29.1203L36.2254 29.1754C35.4143 29.2491 33.9314 29.4996 33.4558 29.6434C33.2446 29.7072 33.0717 29.7445 33.0717 29.7262C33.0717 29.7078 33.3126 29.41 33.6072 29.0645L34.1427 28.4363L34.4302 28.5344C35.0051 28.7306 35.9169 28.4882 36.8047 27.9032C37.2666 27.5989 38.317 26.5635 38.4908 26.2413C38.5828 26.0704 38.5765 26.0676 38.2348 26.1249C37.654 26.2223 36.1392 26.7257 35.5686 27.0108L35.0331 27.2784L35.4991 26.5085L35.965 25.7384L36.445 25.7262C37.1581 25.708 37.7016 25.4117 38.4238 24.6471C38.9768 24.0617 39.6217 23.12 39.6217 22.898C39.6217 22.8233 39.5591 22.8204 39.3589 22.8859C38.8146 23.0639 37.3019 23.8304 36.9187 24.1224C36.6266 24.345 36.5363 24.3847 36.5803 24.271C36.6132 24.1858 36.7371 23.8001 36.8556 23.4137L37.071 22.7113H37.3601C38.0497 22.7113 38.9311 21.9984 39.4605 21.0126C39.7218 20.5259 40.0499 19.658 39.9936 19.6021C39.8866 19.4958 38.2628 20.5076 37.7554 20.9969L37.385 21.3539L37.5308 20.5435C37.6947 19.632 37.7151 19.5808 37.9125 19.5808C38.1666 19.5808 38.7896 19.1218 39.0549 18.7391C39.1978 18.5329 39.398 18.1592 39.4996 17.9089C39.7107 17.3893 39.9129 16.552 39.8439 16.4835C39.7735 16.4136 38.7139 17.1314 38.2517 17.5622L37.8427 17.9434V17.1968C37.8427 16.5873 37.8649 16.4502 37.9638 16.4502C38.1654 16.4502 38.7322 15.883 38.9426 15.4707C39.2598 14.8495 39.5709 13.3196 39.3802 13.3196C39.2654 13.3196 38.5507 13.9164 38.1204 14.3714L37.7108 14.8046L37.5846 14.1223L37.4584 13.44L37.7338 13.2115C38.2918 12.7483 38.5634 11.8035 38.4391 10.7573C38.4002 10.4298 38.3319 10.152 38.2875 10.1401C38.1779 10.1109 37.4759 10.9783 37.192 11.4936C36.998 11.8458 36.9534 11.8862 36.9063 11.7523C36.8756 11.6651 36.7316 11.3156 36.5863 10.9758L36.3221 10.3577L36.5043 10.2393C37.0075 9.91193 37.1052 8.82907 36.7293 7.74742C36.6078 7.39792 36.4686 7.09875 36.4198 7.08261C36.3165 7.04842 35.7917 8.14893 35.6558 8.68491L35.5626 9.05207L35.0094 8.32184L34.4563 7.59169L34.6467 7.36709C34.7513 7.24364 34.8591 7.0424 34.8861 6.9199C34.9966 6.41949 34.5829 5.22273 34.0877 4.60986L33.8933 4.36936L33.7992 4.61018C33.6314 5.03931 33.4669 6.04776 33.5188 6.32943C33.5684 6.59898 33.5559 6.59159 32.7949 5.89813C32.369 5.51002 32.0204 5.18091 32.0204 5.16678C32.0204 5.15265 32.0977 5.01105 32.1923 4.85204C32.5076 4.32144 32.2578 3.50982 31.4737 2.51815C31.1127 2.06157 31.1035 2.05603 31.0259 2.2474C30.9246 2.49752 30.9071 3.72126 30.9995 4.08842C31.0675 4.35853 31.0644 4.36431 30.9186 4.23788C30.7086 4.05575 29.6641 3.43067 29.6286 3.46591C29.6127 3.48173 29.8726 3.72535 30.2062 4.00726C31.0248 4.69904 32.8257 6.5407 33.5038 7.37953C35.1865 9.46105 36.4778 11.9961 36.9038 14.0548C37.3125 16.0296 37.2795 17.8951 36.7847 20.7848C36.4633 22.662 35.9742 24.2655 35.347 25.4988C33.6211 28.8929 30.5596 31.879 27.6125 33.043C24.9476 34.0956 22.5185 34.6074 20.1333 34.6191C18.7785 34.6257 18.3367 34.5883 16.9518 34.3494C15.1906 34.0456 12.5652 33.2196 11.319 32.5773C9.98132 31.8878 7.89808 30.1219 6.73484 28.6915C5.01734 26.5798 3.91879 24.3263 3.40562 21.8624C2.93992 19.6262 2.71277 17.0638 2.84766 15.5672C3.1995 11.6641 5.48782 7.8297 9.74212 4.01473C10.4178 3.40876 10.3509 3.40081 9.44179 3.97909C8.91196 4.31615 8.90088 4.31928 8.98143 4.10896C9.12731 3.72808 9.07022 2.22636 8.90622 2.13189C8.87671 2.11487 8.69694 2.29154 8.50667 2.52449ZM9.79598 4.93399C8.93719 5.11902 8.1418 5.70299 8.40009 5.95882C8.564 6.1212 9.59972 6.06718 10.106 5.86987C10.7276 5.6277 11.8191 4.98015 11.7616 4.88768C11.6915 4.77522 10.3905 4.80588 9.79598 4.93399ZM28.2691 4.87692C28.2017 4.98521 28.6667 5.28486 29.5701 5.71519C30.5308 6.17282 31.6161 6.22716 31.6161 5.8177C31.6161 5.62746 30.956 5.13443 30.528 5.00503C30.0049 4.84682 28.3463 4.75274 28.2691 4.87692ZM7.6178 7.26314C7.04269 7.41686 6.76969 7.56657 6.51383 7.86839C6.25134 8.17799 6.27455 8.27392 6.63432 8.36735C7.22787 8.52147 8.21418 8.23972 9.33424 7.59611C9.80609 7.32495 9.87126 7.26298 9.73856 7.21145C9.4726 7.10814 8.06975 7.14241 7.6178 7.26314ZM30.1799 7.20029C30.1095 7.24821 30.2843 7.38411 30.746 7.64026C31.9674 8.31799 32.8225 8.54363 33.4237 8.34664C33.7093 8.25313 33.7138 8.24534 33.6042 8.03591C33.4666 7.77302 33.1491 7.53759 32.6673 7.34133C32.2679 7.17862 30.3699 7.07097 30.1799 7.20029ZM6.77689 9.38816C5.67639 9.57254 4.93478 9.96756 4.71677 10.4855C4.56361 10.8494 4.64181 10.9303 5.14616 10.9291C5.60313 10.9281 6.09067 10.7522 6.70597 10.3663C7.24008 10.0315 7.99277 9.44925 7.999 9.36625C8.00466 9.29095 7.27938 9.30396 6.77689 9.38816ZM32.2226 9.58555C33.185 10.4413 34.4292 11.0365 35.0477 10.9369C35.2824 10.8991 35.3359 10.8557 35.3359 10.7031C35.3359 10.6 35.2211 10.3859 35.0808 10.2272C34.6215 9.70804 33.8438 9.42653 32.6513 9.3477L31.8991 9.29794L32.2226 9.58555ZM5.61801 11.7868C4.30889 12.1687 3.55595 12.7987 3.55595 13.5123C3.55595 13.7043 3.58328 13.7209 3.89963 13.7202C4.44062 13.719 5.04031 13.3901 5.69281 12.7367C6.01198 12.4171 6.35566 12.0382 6.4565 11.8948L6.63982 11.6339L6.37151 11.6396C6.22393 11.6427 5.88486 11.709 5.61801 11.7868ZM33.3951 11.7111C33.3951 11.7536 33.7249 12.1308 34.128 12.5493C34.952 13.405 35.4703 13.721 36.0496 13.721H36.4082L36.3663 13.3523C36.2927 12.7042 35.6243 12.1729 34.4177 11.8036C33.8282 11.6232 33.3951 11.584 33.3951 11.7111ZM5.45628 14.4376C4.00039 14.9527 3.15373 15.7702 3.24551 16.572C3.27163 16.8003 3.28942 16.8107 3.62954 16.7949C4.29676 16.7641 5.02608 16.1338 5.71513 14.9925C6.18495 14.2145 6.17104 14.1848 5.45628 14.4376ZM34.0116 14.5437C34.7385 15.9441 35.7298 16.8515 36.5326 16.8515C36.8946 16.8515 36.8572 16.198 36.4647 15.6683C36.3305 15.4871 36.0148 15.2032 35.763 15.0373C35.2955 14.7293 34.2782 14.2906 34.0197 14.2856C33.8839 14.283 33.8835 14.2968 34.0116 14.5437ZM5.36951 17.0816C4.5645 17.4693 3.93715 17.9598 3.62768 18.4435C3.42997 18.7524 3.39188 18.8886 3.4112 19.2188C3.43789 19.6746 3.5152 19.7213 4.01915 19.5866C4.67609 19.4111 5.42563 18.5282 5.86788 17.4092C5.98934 17.1019 6.0711 16.8331 6.04959 16.8117C6.02808 16.7904 5.722 16.9118 5.36951 17.0816ZM33.9225 16.9519C33.9516 17.0513 34.1326 17.4576 34.3247 17.8549C34.8434 18.9282 35.647 19.6538 36.3228 19.6593C36.5097 19.6608 36.5493 19.6197 36.5953 19.3766C36.7294 18.6674 35.945 17.7388 34.6828 17.1124C34.3047 16.9247 33.967 16.7713 33.9324 16.7713C33.8978 16.7713 33.8933 16.8525 33.9225 16.9519ZM5.88535 19.4336C5.17964 19.8107 4.51428 20.383 4.21743 20.868C3.98316 21.2506 3.95308 21.3607 3.98171 21.7308C4.02238 22.2576 4.1047 22.3461 4.48711 22.2749C4.84179 22.2088 5.40137 21.723 5.69435 21.2267C5.92902 20.8292 6.40814 19.4631 6.37078 19.298C6.3521 19.2152 6.23032 19.2492 5.88535 19.4336ZM33.5948 19.3513C34.0846 21.057 34.5132 21.8147 35.1788 22.1518C35.6809 22.406 35.8781 22.3675 35.9912 21.9928C36.0668 21.7423 36.0645 21.5947 35.9801 21.2905C35.8324 20.7583 34.9534 19.8903 34.1349 19.4685C33.5607 19.1725 33.5423 19.1685 33.5948 19.3513ZM33.2334 21.9785C33.2334 22.3454 33.4174 23.4082 33.5606 23.8684C33.7377 24.4373 34.1823 25.0049 34.5804 25.17C34.9279 25.3142 34.9096 25.3196 35.0942 25.0191C35.3263 24.6412 35.3074 24.0512 35.0465 23.5314C34.8347 23.1096 33.9738 22.2454 33.4854 21.9642C33.2389 21.8224 33.2334 21.8227 33.2334 21.9785ZM6.08153 22.2686C5.57345 22.6478 5.12336 23.1438 4.90446 23.5658C4.61415 24.1256 4.66049 24.8442 5.00683 25.1554C5.14899 25.2831 5.17705 25.2814 5.48434 25.1257C6.17121 24.7779 6.53955 23.9585 6.70492 22.4103C6.74414 22.0435 6.73233 21.9086 6.66125 21.9086C6.60772 21.9086 6.34685 22.0706 6.08153 22.2686ZM7.12444 24.7538C6.33156 25.5734 6.03083 26.4575 6.30383 27.1664C6.41348 27.4513 6.7764 27.8487 6.92697 27.8487C6.98535 27.8487 7.17393 27.7089 7.34601 27.5381C7.57163 27.3142 7.68848 27.1072 7.7653 26.7956C7.91773 26.1774 7.857 24.2365 7.68532 24.2365C7.65201 24.2365 7.39963 24.4693 7.12444 24.7538ZM32.2315 24.3024C32.1255 24.4726 32.0863 26.2299 32.1786 26.6695C32.2769 27.138 32.5866 27.5966 32.9264 27.7772C33.1511 27.8965 33.418 27.6971 33.6383 27.2455C33.9816 26.5415 33.6947 25.6168 32.8529 24.7143C32.4117 24.2412 32.3111 24.1745 32.2315 24.3024ZM8.75444 26.7853C7.92767 27.9978 7.88045 29.0953 8.62328 29.8328C9.01434 30.2209 9.19353 30.2567 9.43961 29.9959C9.94534 29.4601 9.90782 28.6508 9.29656 26.9055C9.19984 26.6296 9.09682 26.4039 9.06755 26.404C9.03827 26.4041 8.89741 26.5756 8.75444 26.7853ZM30.7732 26.6824C30.2972 27.8132 30.072 28.9846 30.2357 29.4772C30.3636 29.8617 30.6223 30.1766 30.8105 30.1766C31.0275 30.1766 31.5151 29.7278 31.7099 29.3486C31.9734 28.836 31.8999 28.0443 31.5174 27.2762C31.3528 26.9457 31.146 26.6104 31.0578 26.5312C30.9015 26.3908 30.8944 26.3946 30.7732 26.6824ZM10.795 28.7285C10.7269 28.8592 10.6134 29.2114 10.5427 29.5111C10.2576 30.7203 10.6984 31.8008 11.6505 32.2271C11.9523 32.3622 11.9733 32.3621 12.1248 32.226C12.6732 31.7333 12.4505 30.7241 11.4552 29.1926C11.2044 28.8066 10.9811 28.4909 10.959 28.4909C10.9369 28.4909 10.8631 28.5978 10.795 28.7285ZM28.508 29.2314C27.6096 30.6156 27.3714 31.4932 27.7337 32.083C27.9323 32.4063 28.0914 32.4101 28.5592 32.1024C29.2626 31.64 29.5558 30.9883 29.4937 30.0256C29.4571 29.4586 29.1726 28.4903 29.0428 28.4913C29.0127 28.4914 28.772 28.8245 28.508 29.2314Z" fill="#FBCD28"/>
</svg>
