<svg width="9" height="13" viewBox="0 0 9 13" fill="none" xmlns="http://www.w3.org/2000/svg">
<path d="M4.5 0.341309C3.3075 0.343155 2.16361 0.782544 1.32031 1.56347C0.477009 2.34439 0.0018 3.40316 0 4.50808C0 7.7647 4.05721 12.0487 4.23001 12.2287C4.29841 12.2998 4.3965 12.3413 4.5 12.3413C4.6035 12.3413 4.70159 12.2998 4.76999 12.2287C4.94279 12.0487 9 7.7647 9 4.50808C8.9982 3.40316 8.52299 2.34439 7.67969 1.56347C6.83639 0.782544 5.6925 0.343155 4.5 0.341309ZM4.5 11.4921C3.5928 10.4748 0.719989 7.05116 0.719989 4.50808C0.719989 3.25732 1.43999 2.10254 2.60999 1.47669C3.77909 0.851766 5.22001 0.851766 6.39001 1.47669C7.55911 2.10254 8.28001 3.25732 8.28001 4.50808C8.28001 7.05116 5.4072 10.4748 4.5 11.4921Z" fill="#595959"/>
<path d="M4.50264 3.0071C4.02564 3.0071 3.56754 3.18249 3.23004 3.49541C2.89254 3.80834 2.70264 4.23202 2.70264 4.67418C2.70264 5.11633 2.89254 5.54002 3.23004 5.85294C3.56754 6.16494 4.02564 6.34032 4.50264 6.34032C4.98054 6.34032 5.43864 6.16494 5.77614 5.85294C6.11364 5.54002 6.30264 5.11633 6.30264 4.67418C6.30264 4.23202 6.11364 3.80834 5.77614 3.49541C5.43864 3.18249 4.98054 3.0071 4.50264 3.0071ZM4.50264 5.67386C4.21644 5.67386 3.94194 5.56864 3.73944 5.38126C3.53694 5.19387 3.42265 4.9391 3.42265 4.67418C3.42265 4.40925 3.53694 4.15448 3.73944 3.96709C3.94194 3.77971 4.21644 3.67448 4.50264 3.67448C4.78974 3.67448 5.06424 3.77971 5.26674 3.96709C5.46924 4.15448 5.58265 4.40925 5.58265 4.67418C5.58265 4.9391 5.46924 5.19387 5.26674 5.38126C5.06424 5.56864 4.78974 5.67386 4.50264 5.67386Z" fill="#595959"/>
</svg>
