<svg width="20" height="20" viewBox="0 0 20 20" fill="none" xmlns="http://www.w3.org/2000/svg">
<g clip-path="url(#clip0_1_1151)">
<path d="M2.16094 14.1615C1.78614 13.7867 1.45329 13.3888 1.15762 12.9785C0.644148 13.3002 0.263484 13.6017 0.078054 13.7566C0.00360085 13.8188 -0.0140163 13.9257 0.0365305 14.0085C0.421882 14.6398 2.09848 17.1589 4.53852 17.5612C5.61723 17.739 6.68719 17.477 7.59458 17.0885C5.97528 16.6739 3.83751 15.8381 2.16094 14.1615Z" fill="white"/>
<path d="M18.8589 12.9785C18.5632 13.3888 18.2303 13.7867 17.8555 14.1615C16.1789 15.8382 14.0412 16.6739 12.4219 17.0885C13.3293 17.477 14.3992 17.739 15.4779 17.5612C17.918 17.1589 19.5946 14.6398 19.9799 14.0085C20.0305 13.9257 20.0128 13.8188 19.9384 13.7566C19.753 13.6017 19.3723 13.3002 18.8589 12.9785Z" fill="white"/>
<path d="M6.23699 6.95091C6.44957 6.10313 6.75371 5.3202 7.08617 4.62704C6.14402 3.75505 5.25922 3.1943 4.87582 2.96856C4.77062 2.90661 4.63539 2.95501 4.59332 3.06962C4.43691 3.49602 4.09801 4.52387 3.92578 5.83391C4.67785 6.10809 5.47109 6.47106 6.23699 6.95091Z" fill="white"/>
<path d="M16.0823 5.83391C15.91 4.52387 15.5711 3.49602 15.4147 3.06962C15.3727 2.95501 15.2374 2.90661 15.1322 2.96856C14.7488 3.19426 13.8641 3.75505 12.9219 4.62704C13.2543 5.3202 13.5584 6.10309 13.7711 6.95091C14.537 6.47106 15.3302 6.10809 16.0823 5.83391Z" fill="white"/>
<path d="M5.93528 9.34755C5.93528 8.95763 5.96083 8.57513 6.00681 8.20153C3.72696 6.60946 1.0229 6.25474 0.224306 6.18247C0.100712 6.1713 -0.00252993 6.27454 0.00864194 6.39813C0.093681 7.33743 0.568955 10.913 2.98958 13.3336C4.59931 14.9434 6.71954 15.6927 8.23583 16.0391C7.28243 14.656 5.93528 12.1968 5.93528 9.34755Z" fill="white"/>
<path d="M19.7928 6.18247C18.9942 6.25474 16.2902 6.60946 14.0103 8.20157C14.0563 8.57513 14.0818 8.95763 14.0818 9.34755C14.0818 12.1968 12.7346 14.656 11.7812 16.0391C13.2975 15.6926 15.4178 14.9434 17.0275 13.3336C19.4482 10.913 19.9235 7.33739 20.0085 6.3981C20.0196 6.27454 19.9164 6.1713 19.7928 6.18247Z" fill="white"/>
<path d="M12.9067 9.34676C12.9067 12.7142 10.7503 15.5318 10.156 16.2443C10.0778 16.3381 9.93421 16.3381 9.85601 16.2443C9.26179 15.5318 7.10535 12.7142 7.10535 9.34676C7.10535 5.97934 9.26183 3.16172 9.85605 2.44922C9.93425 2.35547 10.0779 2.35547 10.1561 2.44922C10.7503 3.16172 12.9067 5.97937 12.9067 9.34676Z" fill="white"/>
</g>
<defs>
<clipPath id="clip0_1_1151">
<rect width="20" height="20" fill="white"/>
</clipPath>
</defs>
</svg>
