<svg width="18" height="15" viewBox="0 0 18 15" fill="none" xmlns="http://www.w3.org/2000/svg">
<path d="M17.0082 6.81768L11.542 1.00811C11.0382 0.47272 10.1988 0.47272 9.69501 1.00811C9.19126 1.5435 9.19126 2.43572 9.69501 2.97111L12.9226 6.42109H1.90586C1.17828 6.42109 0.599976 7.03572 0.599976 7.809C0.599976 8.58229 1.17828 9.19692 1.90586 9.19692H12.9226L9.69501 12.6271C9.19126 13.1625 9.19126 14.0547 9.69501 14.5901C9.95618 14.8677 10.2921 15.0066 10.6278 15.0066C10.9635 15.0066 11.2994 14.8677 11.5606 14.5901L17.0081 8.80037C17.2507 8.54256 17.4 8.18574 17.4 7.80897C17.4 7.43221 17.2694 7.07548 17.0082 6.81768Z" fill="#1A1A1A"/>
</svg>
