<svg width="20" height="21" viewBox="0 0 20 21" fill="none" xmlns="http://www.w3.org/2000/svg">
<g clip-path="url(#clip0_1_2686)">
<path d="M15.0732 15.9062H4.91422C4.59055 15.9062 4.32812 16.1717 4.32812 16.4991V19.6613C4.32812 19.9887 4.59055 20.2541 4.91422 20.2541H15.0732C15.3969 20.2541 15.6593 19.9887 15.6593 19.6613V16.4991C15.6593 16.1717 15.3969 15.9062 15.0732 15.9062Z" fill="white"/>
<path d="M15.7091 11.8639L10.9599 0.366835C10.8741 0.176328 10.5861 0.236796 10.5861 0.445312V9.3427C10.8233 9.52297 10.9768 9.80996 10.9768 10.1332C10.9768 10.679 10.5395 11.1214 10 11.1214C9.46052 11.1214 9.02318 10.679 9.02318 10.1332C9.02318 9.80996 9.17665 9.52297 9.41392 9.3427V0.445312C9.41392 0.236796 9.12587 0.176289 9.04017 0.366835L4.29095 11.8639C4.20372 12.0577 4.22599 12.2839 4.34919 12.4566L5.96337 14.7183H14.0367L15.6508 12.4566C15.774 12.2839 15.7963 12.0577 15.7091 11.8639Z" fill="white"/>
</g>
<defs>
<clipPath id="clip0_1_2686">
<rect width="20" height="20" fill="white" transform="translate(0 0.253906)"/>
</clipPath>
</defs>
</svg>
