<svg width="16" height="16" viewBox="0 0 16 16" fill="none" xmlns="http://www.w3.org/2000/svg">
<g clip-path="url(#clip0_1_3511)">
<path d="M1.25859 5.90745C1.25859 6.94936 2.11408 7.79641 3.16482 7.79641C4.21544 7.79641 5.07079 6.94948 5.07079 5.90745C5.07079 4.86529 4.21544 4.01836 3.16482 4.01836C2.11408 4.01836 1.25859 4.86541 1.25859 5.90745ZM1.87472 5.90745C1.87472 5.2062 2.45279 4.63449 3.16482 4.63449C3.87659 4.63449 4.45466 5.2062 4.45466 5.90745C4.45466 6.60857 3.87659 7.18028 3.16482 7.18028C2.45279 7.18028 1.87472 6.60856 1.87472 5.90745Z" fill="#ED1C24" stroke="#ED1C24" stroke-width="0.1"/>
<path d="M5.08351 8.76856L5.08349 8.76855C4.52569 8.35705 3.86193 8.13945 3.16494 8.13945C1.39258 8.13945 -0.05 9.56738 -0.05 11.3235V12.1677C-0.05 12.5651 0.27523 12.8879 0.674521 12.8879H3.91167C4.08178 12.8879 4.21986 12.7498 4.21986 12.5798C4.21986 12.4097 4.08178 12.2718 3.91179 12.2718H0.674521C0.613518 12.2718 0.566129 12.2237 0.566129 12.1677V11.3235C0.566129 9.90827 1.73145 8.75558 3.16494 8.75558C3.72981 8.75558 4.26652 8.93164 4.71767 9.26447L4.7177 9.26449C4.85472 9.36541 5.04739 9.33622 5.14845 9.19952L5.14848 9.19948C5.24956 9.06245 5.22036 8.86962 5.08351 8.76856Z" fill="#ED1C24" stroke="#ED1C24" stroke-width="0.1"/>
<path d="M10.7958 9.0637C10.8856 9.17446 11.048 9.19147 11.1587 9.10188L11.1901 9.14074C11.058 9.24772 10.8641 9.22736 10.7569 9.0952L10.7569 9.09514C10.65 8.96298 10.6701 8.76894 10.8026 8.6618C11.3745 8.19904 12.0964 7.94414 12.8356 7.94414C14.6078 7.94414 16.0504 9.37194 16.0504 11.1282V11.9723C16.0504 12.3697 15.7252 12.6925 15.3259 12.6925H12.0887C11.9188 12.6925 11.7807 12.5545 11.7807 12.3844C11.7807 12.2144 11.9187 12.0763 12.0887 12.0763H15.326C15.3871 12.0763 15.4344 12.0283 15.4344 11.9723V11.1282C15.4344 9.71271 14.2691 8.56027 12.8356 8.56027C12.237 8.56027 11.6526 8.76644 11.1901 9.14073L10.7958 9.0637ZM10.7958 9.0637C10.7062 8.95294 10.7231 8.79039 10.8341 8.70067L10.7958 9.0637Z" fill="#ED1C24" stroke="#ED1C24" stroke-width="0.1"/>
<path d="M10.9266 5.78049C10.9266 6.82253 11.7819 7.66946 12.8325 7.66946C13.8831 7.66946 14.7388 6.82266 14.7388 5.78049C14.7388 4.73833 13.8833 3.89141 12.8325 3.89141C11.7819 3.89141 10.9266 4.73847 10.9266 5.78049ZM11.5427 5.78049C11.5427 5.07924 12.1208 4.50754 12.8325 4.50754C13.5444 4.50754 14.1226 5.07925 14.1226 5.78049C14.1226 6.48173 13.5446 7.05333 12.8325 7.05333C12.1208 7.05333 11.5427 6.48174 11.5427 5.78049Z" fill="#ED1C24" stroke="#ED1C24" stroke-width="0.1"/>
<path d="M4.50013 13.7276H11.5052C11.9978 13.7276 12.399 13.3298 12.399 12.8399V11.6527C12.399 9.25184 10.4266 7.29961 8.00265 7.29961C5.57871 7.29961 3.60625 9.25184 3.60625 11.6527V12.8399C3.60625 13.3298 4.00751 13.7276 4.50013 13.7276ZM4.22238 11.6528C4.22238 9.59285 5.9177 7.91586 8.00265 7.91586C10.0876 7.91586 11.7829 9.59285 11.7828 11.6528V12.84C11.7828 12.9888 11.659 13.1116 11.505 13.1116H4.50013C4.34614 13.1116 4.22238 12.9888 4.22238 12.84V11.6528Z" fill="#ED1C24" stroke="#ED1C24" stroke-width="0.1"/>
<path d="M5.47344 4.68479C5.47344 6.01577 6.56633 7.09757 7.90852 7.09757C9.25083 7.09757 10.3437 6.0159 10.3437 4.68492C10.3437 3.35406 9.25096 2.27227 7.90852 2.27227C6.56621 2.27227 5.47344 3.35393 5.47344 4.68479ZM6.08957 4.68492C6.08957 3.69495 6.90507 2.88839 7.90852 2.88839C8.9121 2.88839 9.7276 3.69496 9.7276 4.68492C9.7276 5.67501 8.9121 6.48156 7.90852 6.48156C6.90507 6.48156 6.08957 5.67501 6.08957 4.68492Z" fill="#ED1C24" stroke="#ED1C24" stroke-width="0.1"/>
</g>
<defs>
<clipPath id="clip0_1_3511">
<rect width="16" height="16" fill="white"/>
</clipPath>
</defs>
</svg>
