<svg width="13" height="13" viewBox="0 0 13 13" fill="none" xmlns="http://www.w3.org/2000/svg">
<g clip-path="url(#clip0_1_3118)">
<path d="M9.98287 8.16964C9.7372 7.91384 9.44087 7.77708 9.12682 7.77708C8.8153 7.77708 8.51644 7.91131 8.26064 8.16711L7.46031 8.96491C7.39446 8.92945 7.32862 8.89652 7.2653 8.8636C7.17412 8.81801 7.08801 8.77495 7.01456 8.72937C6.26489 8.25322 5.5836 7.63271 4.93017 6.82985C4.61358 6.42969 4.40084 6.09284 4.24634 5.75093C4.45402 5.56098 4.64651 5.36343 4.83392 5.17348C4.90484 5.10256 4.97575 5.02912 5.04667 4.9582C5.57853 4.42634 5.57853 3.73745 5.04667 3.20559L4.35525 2.51416C4.27673 2.43565 4.19569 2.3546 4.11971 2.27356C3.96775 2.11653 3.80819 1.95444 3.64356 1.80248C3.39789 1.55934 3.1041 1.43018 2.79511 1.43018C2.48613 1.43018 2.18727 1.55934 1.934 1.80248C1.93147 1.80501 1.93147 1.80501 1.92894 1.80755L1.06783 2.67626C0.743643 3.00044 0.558757 3.39554 0.518234 3.85395C0.45745 4.5935 0.67526 5.28239 0.842417 5.7332C1.25271 6.83998 1.86562 7.86572 2.77992 8.96491C3.88923 10.2895 5.22396 11.3355 6.74863 12.0725C7.33115 12.3486 8.10868 12.6753 8.97739 12.731C9.03058 12.7335 9.0863 12.7361 9.13695 12.7361C9.722 12.7361 10.2133 12.5259 10.5983 12.108C10.6008 12.1029 10.6059 12.1004 10.6084 12.0953C10.7401 11.9357 10.8921 11.7914 11.0517 11.6369C11.1606 11.533 11.272 11.4241 11.3809 11.3102C11.6316 11.0493 11.7633 10.7454 11.7633 10.4339C11.7633 10.1198 11.6291 9.81842 11.3733 9.56515L9.98287 8.16964ZM10.8896 10.8366C10.887 10.8366 10.887 10.8391 10.8896 10.8366C10.7908 10.9429 10.6895 11.0392 10.5806 11.1455C10.416 11.3026 10.2488 11.4672 10.0918 11.6521C9.83597 11.9256 9.53458 12.0548 9.13948 12.0548C9.10149 12.0548 9.06097 12.0548 9.02298 12.0522C8.27077 12.0041 7.57175 11.7103 7.04749 11.4596C5.61399 10.7656 4.35525 9.78043 3.30925 8.53182C2.44561 7.49088 1.86815 6.52846 1.48572 5.49513C1.25018 4.86449 1.16407 4.37315 1.20206 3.90967C1.22739 3.61335 1.34136 3.36768 1.55157 3.15747L2.41521 2.29382C2.53931 2.17732 2.67101 2.114 2.80018 2.114C2.95974 2.114 3.08891 2.21024 3.16995 2.29129C3.17248 2.29382 3.17502 2.29635 3.17755 2.29889C3.33204 2.44325 3.47894 2.59268 3.63343 2.75224C3.71195 2.83328 3.79299 2.91433 3.87404 2.99791L4.56546 3.68933C4.83392 3.95779 4.83392 4.206 4.56546 4.47446C4.49201 4.54791 4.4211 4.62136 4.34765 4.69227C4.1349 4.91008 3.93229 5.1127 3.71195 5.31024C3.70688 5.31531 3.70182 5.31784 3.69928 5.32291C3.48147 5.54072 3.52199 5.75346 3.56758 5.89783C3.57012 5.90543 3.57265 5.91302 3.57518 5.92062C3.755 6.35624 4.00827 6.76654 4.39324 7.25534L4.39577 7.25788C5.09479 8.11899 5.8318 8.79015 6.64479 9.30428C6.74863 9.37013 6.855 9.42332 6.95631 9.47397C7.04749 9.51956 7.1336 9.56262 7.20705 9.60821C7.21718 9.61327 7.22731 9.62087 7.23744 9.62594C7.32355 9.66899 7.4046 9.68925 7.48817 9.68925C7.69839 9.68925 7.83009 9.55755 7.87314 9.5145L8.73932 8.64832C8.82543 8.56221 8.9622 8.45837 9.12175 8.45837C9.27878 8.45837 9.40795 8.55714 9.48646 8.64325C9.48899 8.64579 9.48899 8.64579 9.49153 8.64832L10.887 10.0438C11.1479 10.3022 11.1479 10.5681 10.8896 10.8366Z" fill="white"/>
<path d="M6.98456 3.59087C7.64813 3.70231 8.2509 4.01636 8.73211 4.49757C9.21332 4.97878 9.52484 5.58156 9.63881 6.24512C9.66667 6.41228 9.81104 6.52878 9.97566 6.52878C9.99592 6.52878 10.0137 6.52625 10.0339 6.52371C10.2213 6.49332 10.3454 6.31604 10.315 6.12862C10.1783 5.32576 9.79837 4.59381 9.21839 4.01383C8.6384 3.43384 7.90646 3.05394 7.1036 2.91718C6.91618 2.88678 6.74142 3.01088 6.7085 3.19577C6.67558 3.38066 6.79714 3.56048 6.98456 3.59087Z" fill="white"/>
<path d="M12.4823 6.02929C12.2568 4.70723 11.6338 3.50421 10.6765 2.54685C9.7191 1.5895 8.51608 0.966461 7.19402 0.741052C7.00913 0.708128 6.83437 0.834762 6.80145 1.01965C6.77106 1.20707 6.89516 1.38182 7.08258 1.41475C8.26281 1.61483 9.3392 2.17455 10.1952 3.02806C11.0513 3.88411 11.6085 4.9605 11.8086 6.14073C11.8364 6.30789 11.9808 6.42439 12.1454 6.42439C12.1657 6.42439 12.1834 6.42186 12.2037 6.41933C12.3885 6.39147 12.5152 6.21418 12.4823 6.02929Z" fill="white"/>
</g>
<defs>
<clipPath id="clip0_1_3118">
<rect width="12" height="12" fill="white" transform="translate(0.5 0.73584)"/>
</clipPath>
</defs>
</svg>
