<svg width="18" height="15" viewBox="0 0 18 15" fill="none" xmlns="http://www.w3.org/2000/svg">
<path d="M0.991831 6.81768L6.45802 1.00811C6.96177 0.47272 7.80125 0.47272 8.30499 1.00811C8.80874 1.5435 8.80874 2.43572 8.30499 2.97111L5.07741 6.42109H16.0941C16.8217 6.42109 17.4 7.03572 17.4 7.809C17.4 8.58229 16.8217 9.19692 16.0941 9.19692H5.07741L8.30499 12.6271C8.80874 13.1625 8.80874 14.0547 8.30499 14.5901C8.04382 14.8677 7.70794 15.0066 7.3722 15.0066C7.03646 15.0066 6.70058 14.8677 6.4394 14.5901L0.991863 8.80037C0.749296 8.54256 0.600023 8.18574 0.600023 7.80897C0.600023 7.43221 0.730644 7.07548 0.991831 6.81768Z" fill="#1A1A1A"/>
</svg>
