<svg width="16" height="17" viewBox="0 0 16 17" fill="none" xmlns="http://www.w3.org/2000/svg">
<path d="M15.9583 6.51691C15.8536 6.17884 15.5662 5.93872 15.2262 5.90675L10.6082 5.46919L8.78209 1.00915C8.64744 0.682285 8.34079 0.470703 8.00008 0.470703C7.65938 0.470703 7.35273 0.682285 7.21808 1.00991L5.39198 5.46919L0.773211 5.90675C0.433847 5.93949 0.147219 6.17884 0.0418692 6.51691C-0.0634802 6.85498 0.0338123 7.22579 0.290533 7.45954L3.78122 10.654L2.7519 15.3854C2.67658 15.7333 2.80598 16.0929 3.0826 16.3015C3.23128 16.4136 3.40524 16.4707 3.58066 16.4707C3.73191 16.4707 3.88193 16.4282 4.01658 16.3441L8.00008 13.8597L11.9821 16.3441C12.2735 16.527 12.6408 16.5103 12.9168 16.3015C13.1936 16.0922 13.3229 15.7325 13.2475 15.3854L12.2182 10.654L15.7089 7.46018C15.9656 7.22579 16.0636 6.85562 15.9583 6.51691Z" fill="#FFAC0C"/>
</svg>
