<svg width="20" height="20" viewBox="0 0 20 20" fill="none" xmlns="http://www.w3.org/2000/svg">
<g clip-path="url(#clip0_1_1166)">
<path fill-rule="evenodd" clip-rule="evenodd" d="M8.52165 2.50668C9.62445 2.44181 10.7024 2.85163 11.4835 3.63278L16.3672 8.5165C17.8776 10.0268 17.8776 12.4756 16.3672 13.986L13.986 16.3672C12.4757 17.8776 10.0269 17.8776 8.51648 16.3672L3.63278 11.4835C2.85163 10.7024 2.44181 9.62445 2.50668 8.52165L2.75616 4.28059C2.80446 3.45951 3.45951 2.80446 4.28059 2.75615L8.52165 2.50668ZM6.3337 6.33372C7.29613 5.3713 8.85648 5.3713 9.8189 6.33372C10.7813 7.29612 10.7813 8.8565 9.8189 9.8189C8.85648 10.7813 7.29613 10.7813 6.3337 9.8189C5.3713 8.8565 5.3713 7.29612 6.3337 6.33372Z" fill="white"/>
</g>
<defs>
<clipPath id="clip0_1_1166">
<rect width="16" height="16" fill="white" transform="translate(2 2)"/>
</clipPath>
</defs>
</svg>
